<mxfile host="app.diagrams.net" agent="Mozilla/5.0 (Windows NT 10.0; Win64; x64) AppleWebKit/537.36 (KHTML, like Gecko) Chrome/131.0.0.0 Safari/537.36" version="25.0.3">
  <diagram id="R2lEEEUBdFMjLlhIrx00" name="Page-1">
    <mxGraphModel dx="1909" dy="1027" grid="1" gridSize="10" guides="1" tooltips="1" connect="1" arrows="1" fold="1" page="1" pageScale="1" pageWidth="850" pageHeight="1100" math="0" shadow="0" extFonts="Permanent Marker^https://fonts.googleapis.com/css?family=Permanent+Marker">
      <root>
        <mxCell id="0" />
        <mxCell id="1" parent="0" />
        <mxCell id="iprwUJsvdUELKbYy_s9p-19" style="edgeStyle=orthogonalEdgeStyle;rounded=0;orthogonalLoop=1;jettySize=auto;html=1;" edge="1" parent="1" source="iprwUJsvdUELKbYy_s9p-1" target="iprwUJsvdUELKbYy_s9p-5">
          <mxGeometry relative="1" as="geometry" />
        </mxCell>
        <mxCell id="iprwUJsvdUELKbYy_s9p-1" value="INSTRUCTOR" style="rounded=0;whiteSpace=wrap;html=1;" vertex="1" parent="1">
          <mxGeometry x="190" y="360" width="120" height="60" as="geometry" />
        </mxCell>
        <mxCell id="iprwUJsvdUELKbYy_s9p-3" value="STUDENT&lt;div&gt;&lt;br&gt;&lt;/div&gt;" style="rounded=0;whiteSpace=wrap;html=1;" vertex="1" parent="1">
          <mxGeometry x="490" y="620" width="120" height="60" as="geometry" />
        </mxCell>
        <mxCell id="iprwUJsvdUELKbYy_s9p-40" style="edgeStyle=orthogonalEdgeStyle;rounded=0;orthogonalLoop=1;jettySize=auto;html=1;entryX=0.5;entryY=0;entryDx=0;entryDy=0;" edge="1" parent="1" source="iprwUJsvdUELKbYy_s9p-4" target="iprwUJsvdUELKbYy_s9p-6">
          <mxGeometry relative="1" as="geometry" />
        </mxCell>
        <mxCell id="iprwUJsvdUELKbYy_s9p-4" value="COURCE" style="rounded=0;whiteSpace=wrap;html=1;" vertex="1" parent="1">
          <mxGeometry x="490" y="360" width="120" height="60" as="geometry" />
        </mxCell>
        <mxCell id="iprwUJsvdUELKbYy_s9p-20" style="edgeStyle=orthogonalEdgeStyle;rounded=0;orthogonalLoop=1;jettySize=auto;html=1;entryX=0;entryY=0.5;entryDx=0;entryDy=0;" edge="1" parent="1" source="iprwUJsvdUELKbYy_s9p-5" target="iprwUJsvdUELKbYy_s9p-4">
          <mxGeometry relative="1" as="geometry" />
        </mxCell>
        <mxCell id="iprwUJsvdUELKbYy_s9p-5" value="teaches" style="rhombus;whiteSpace=wrap;html=1;" vertex="1" parent="1">
          <mxGeometry x="360" y="350" width="80" height="80" as="geometry" />
        </mxCell>
        <mxCell id="iprwUJsvdUELKbYy_s9p-41" style="edgeStyle=orthogonalEdgeStyle;rounded=0;orthogonalLoop=1;jettySize=auto;html=1;" edge="1" parent="1" source="iprwUJsvdUELKbYy_s9p-6" target="iprwUJsvdUELKbYy_s9p-3">
          <mxGeometry relative="1" as="geometry" />
        </mxCell>
        <mxCell id="iprwUJsvdUELKbYy_s9p-6" value="teaches" style="rhombus;whiteSpace=wrap;html=1;" vertex="1" parent="1">
          <mxGeometry x="510" y="480" width="80" height="80" as="geometry" />
        </mxCell>
        <mxCell id="iprwUJsvdUELKbYy_s9p-17" style="edgeStyle=orthogonalEdgeStyle;rounded=0;orthogonalLoop=1;jettySize=auto;html=1;entryX=0;entryY=0.5;entryDx=0;entryDy=0;" edge="1" parent="1" source="iprwUJsvdUELKbYy_s9p-7" target="iprwUJsvdUELKbYy_s9p-1">
          <mxGeometry relative="1" as="geometry" />
        </mxCell>
        <mxCell id="iprwUJsvdUELKbYy_s9p-7" value="name&lt;span style=&quot;color: rgba(0, 0, 0, 0); font-family: monospace; font-size: 0px; text-align: start; text-wrap-mode: nowrap;&quot;&gt;%3CmxGraphModel%3E%3Croot%3E%3CmxCell%20id%3D%220%22%2F%3E%3CmxCell%20id%3D%221%22%20parent%3D%220%22%2F%3E%3CmxCell%20id%3D%222%22%20value%3D%22teaches%22%20style%3D%22rhombus%3BwhiteSpace%3Dwrap%3Bhtml%3D1%3B%22%20vertex%3D%221%22%20parent%3D%221%22%3E%3CmxGeometry%20x%3D%22360%22%20y%3D%22350%22%20width%3D%2280%22%20height%3D%2280%22%20as%3D%22geometry%22%2F%3E%3C%2FmxCell%3E%3C%2Froot%3E%3C%2FmxGraphModel%3E&lt;/span&gt;" style="ellipse;whiteSpace=wrap;html=1;" vertex="1" parent="1">
          <mxGeometry x="90" y="250" width="60" height="40" as="geometry" />
        </mxCell>
        <mxCell id="iprwUJsvdUELKbYy_s9p-15" style="edgeStyle=orthogonalEdgeStyle;rounded=0;orthogonalLoop=1;jettySize=auto;html=1;entryX=0;entryY=0.5;entryDx=0;entryDy=0;" edge="1" parent="1" source="iprwUJsvdUELKbYy_s9p-8" target="iprwUJsvdUELKbYy_s9p-1">
          <mxGeometry relative="1" as="geometry" />
        </mxCell>
        <mxCell id="iprwUJsvdUELKbYy_s9p-8" value="id" style="ellipse;whiteSpace=wrap;html=1;" vertex="1" parent="1">
          <mxGeometry x="90" y="420" width="60" height="40" as="geometry" />
        </mxCell>
        <mxCell id="iprwUJsvdUELKbYy_s9p-9" value="" style="ellipse;whiteSpace=wrap;html=1;" vertex="1" parent="1">
          <mxGeometry x="80" y="320" width="80" height="40" as="geometry" />
        </mxCell>
        <mxCell id="iprwUJsvdUELKbYy_s9p-14" style="edgeStyle=orthogonalEdgeStyle;rounded=0;orthogonalLoop=1;jettySize=auto;html=1;entryX=0;entryY=0.5;entryDx=0;entryDy=0;" edge="1" parent="1" source="iprwUJsvdUELKbYy_s9p-10" target="iprwUJsvdUELKbYy_s9p-1">
          <mxGeometry relative="1" as="geometry" />
        </mxCell>
        <mxCell id="iprwUJsvdUELKbYy_s9p-10" value="experience" style="ellipse;whiteSpace=wrap;html=1;" vertex="1" parent="1">
          <mxGeometry x="90" y="500" width="60" height="40" as="geometry" />
        </mxCell>
        <mxCell id="iprwUJsvdUELKbYy_s9p-16" style="edgeStyle=orthogonalEdgeStyle;rounded=0;orthogonalLoop=1;jettySize=auto;html=1;entryX=0;entryY=0.5;entryDx=0;entryDy=0;" edge="1" parent="1" source="iprwUJsvdUELKbYy_s9p-12" target="iprwUJsvdUELKbYy_s9p-1">
          <mxGeometry relative="1" as="geometry">
            <Array as="points">
              <mxPoint x="170" y="340" />
              <mxPoint x="170" y="390" />
            </Array>
          </mxGeometry>
        </mxCell>
        <mxCell id="iprwUJsvdUELKbYy_s9p-12" value="qualification&lt;span style=&quot;text-wrap-mode: nowrap; color: rgba(0, 0, 0, 0); font-family: monospace; font-size: 0px; text-align: start;&quot;&gt;%3CmxGraphModel%3E%3Croot%3E%3CmxCell%20id%3D%220%22%2F%3E%3CmxCell%20id%3D%221%22%20parent%3D%220%22%2F%3E%3CmxCell%20id%3D%222%22%20value%3D%22teaches%22%20style%3D%22rhombus%3BwhiteSpace%3Dwrap%3Bhtml%3D1%3B%22%20vertex%3D%221%22%20parent%3D%221%22%3E%3CmxGeometry%20x%3D%22360%22%20y%3D%22350%22%20width%3D%2280%22%20height%3D%2280%22%20as%3D%22geometry%22%2F%3E%3C%2FmxCell%3E%3C%2Froot%3E%3C%2FmxGraphModel%3E&lt;/span&gt;" style="ellipse;whiteSpace=wrap;html=1;" vertex="1" parent="1">
          <mxGeometry x="85" y="325" width="70" height="30" as="geometry" />
        </mxCell>
        <mxCell id="iprwUJsvdUELKbYy_s9p-13" value="" style="endArrow=none;html=1;rounded=0;" edge="1" parent="1">
          <mxGeometry width="50" height="50" relative="1" as="geometry">
            <mxPoint x="102.5" y="450" as="sourcePoint" />
            <mxPoint x="137.5" y="450" as="targetPoint" />
          </mxGeometry>
        </mxCell>
        <mxCell id="iprwUJsvdUELKbYy_s9p-34" style="edgeStyle=orthogonalEdgeStyle;rounded=0;orthogonalLoop=1;jettySize=auto;html=1;entryX=1;entryY=0.5;entryDx=0;entryDy=0;" edge="1" parent="1" source="iprwUJsvdUELKbYy_s9p-28" target="iprwUJsvdUELKbYy_s9p-4">
          <mxGeometry relative="1" as="geometry">
            <Array as="points">
              <mxPoint x="640" y="265" />
              <mxPoint x="640" y="390" />
            </Array>
          </mxGeometry>
        </mxCell>
        <mxCell id="iprwUJsvdUELKbYy_s9p-28" value="name&lt;span style=&quot;color: rgba(0, 0, 0, 0); font-family: monospace; font-size: 0px; text-align: start; text-wrap-mode: nowrap;&quot;&gt;%3CmxGraphModel%3E%3Croot%3E%3CmxCell%20id%3D%220%22%2F%3E%3CmxCell%20id%3D%221%22%20parent%3D%220%22%2F%3E%3CmxCell%20id%3D%222%22%20value%3D%22teaches%22%20style%3D%22rhombus%3BwhiteSpace%3Dwrap%3Bhtml%3D1%3B%22%20vertex%3D%221%22%20parent%3D%221%22%3E%3CmxGeometry%20x%3D%22360%22%20y%3D%22350%22%20width%3D%2280%22%20height%3D%2280%22%20as%3D%22geometry%22%2F%3E%3C%2FmxCell%3E%3C%2Froot%3E%3C%2FmxGraphModel%3E&lt;/span&gt;" style="ellipse;whiteSpace=wrap;html=1;" vertex="1" parent="1">
          <mxGeometry x="680" y="245" width="60" height="40" as="geometry" />
        </mxCell>
        <mxCell id="iprwUJsvdUELKbYy_s9p-36" style="edgeStyle=orthogonalEdgeStyle;rounded=0;orthogonalLoop=1;jettySize=auto;html=1;" edge="1" parent="1" source="iprwUJsvdUELKbYy_s9p-29">
          <mxGeometry relative="1" as="geometry">
            <mxPoint x="610" y="390" as="targetPoint" />
            <Array as="points">
              <mxPoint x="640" y="435" />
              <mxPoint x="640" y="390" />
            </Array>
          </mxGeometry>
        </mxCell>
        <mxCell id="iprwUJsvdUELKbYy_s9p-29" value="id" style="ellipse;whiteSpace=wrap;html=1;" vertex="1" parent="1">
          <mxGeometry x="680" y="415" width="60" height="40" as="geometry" />
        </mxCell>
        <mxCell id="iprwUJsvdUELKbYy_s9p-30" value="" style="ellipse;whiteSpace=wrap;html=1;" vertex="1" parent="1">
          <mxGeometry x="670" y="315" width="80" height="40" as="geometry" />
        </mxCell>
        <mxCell id="iprwUJsvdUELKbYy_s9p-37" style="edgeStyle=orthogonalEdgeStyle;rounded=0;orthogonalLoop=1;jettySize=auto;html=1;exitX=0;exitY=0.5;exitDx=0;exitDy=0;" edge="1" parent="1" source="iprwUJsvdUELKbYy_s9p-38">
          <mxGeometry relative="1" as="geometry">
            <mxPoint x="610" y="390" as="targetPoint" />
            <mxPoint x="680" y="515" as="sourcePoint" />
            <Array as="points">
              <mxPoint x="640" y="520" />
              <mxPoint x="640" y="390" />
            </Array>
          </mxGeometry>
        </mxCell>
        <mxCell id="iprwUJsvdUELKbYy_s9p-35" style="edgeStyle=orthogonalEdgeStyle;rounded=0;orthogonalLoop=1;jettySize=auto;html=1;" edge="1" parent="1" source="iprwUJsvdUELKbYy_s9p-32">
          <mxGeometry relative="1" as="geometry">
            <mxPoint x="610" y="390" as="targetPoint" />
            <Array as="points">
              <mxPoint x="640" y="335" />
              <mxPoint x="640" y="390" />
            </Array>
          </mxGeometry>
        </mxCell>
        <mxCell id="iprwUJsvdUELKbYy_s9p-32" value="units" style="ellipse;whiteSpace=wrap;html=1;" vertex="1" parent="1">
          <mxGeometry x="675" y="320" width="70" height="30" as="geometry" />
        </mxCell>
        <mxCell id="iprwUJsvdUELKbYy_s9p-33" value="" style="endArrow=none;html=1;rounded=0;" edge="1" parent="1">
          <mxGeometry width="50" height="50" relative="1" as="geometry">
            <mxPoint x="692.5" y="445" as="sourcePoint" />
            <mxPoint x="727.5" y="445" as="targetPoint" />
          </mxGeometry>
        </mxCell>
        <mxCell id="iprwUJsvdUELKbYy_s9p-38" value="" style="ellipse;whiteSpace=wrap;html=1;" vertex="1" parent="1">
          <mxGeometry x="680" y="500" width="80" height="40" as="geometry" />
        </mxCell>
        <mxCell id="iprwUJsvdUELKbYy_s9p-39" value="notes" style="ellipse;whiteSpace=wrap;html=1;" vertex="1" parent="1">
          <mxGeometry x="685" y="505" width="70" height="30" as="geometry" />
        </mxCell>
        <mxCell id="iprwUJsvdUELKbYy_s9p-53" value="name&lt;span style=&quot;color: rgba(0, 0, 0, 0); font-family: monospace; font-size: 0px; text-align: start; text-wrap-mode: nowrap;&quot;&gt;%3CmxGraphModel%3E%3Croot%3E%3CmxCell%20id%3D%220%22%2F%3E%3CmxCell%20id%3D%221%22%20parent%3D%220%22%2F%3E%3CmxCell%20id%3D%222%22%20value%3D%22teaches%22%20style%3D%22rhombus%3BwhiteSpace%3Dwrap%3Bhtml%3D1%3B%22%20vertex%3D%221%22%20parent%3D%221%22%3E%3CmxGeometry%20x%3D%22360%22%20y%3D%22350%22%20width%3D%2280%22%20height%3D%2280%22%20as%3D%22geometry%22%2F%3E%3C%2FmxCell%3E%3C%2Froot%3E%3C%2FmxGraphModel%3E&lt;/span&gt;" style="ellipse;whiteSpace=wrap;html=1;" vertex="1" parent="1">
          <mxGeometry x="420" y="750" width="60" height="40" as="geometry" />
        </mxCell>
        <mxCell id="iprwUJsvdUELKbYy_s9p-61" style="edgeStyle=orthogonalEdgeStyle;rounded=0;orthogonalLoop=1;jettySize=auto;html=1;entryX=0.459;entryY=1.006;entryDx=0;entryDy=0;entryPerimeter=0;" edge="1" parent="1" source="iprwUJsvdUELKbYy_s9p-54" target="iprwUJsvdUELKbYy_s9p-3">
          <mxGeometry relative="1" as="geometry">
            <mxPoint x="540" y="680" as="targetPoint" />
            <Array as="points">
              <mxPoint x="550" y="720" />
              <mxPoint x="545" y="720" />
            </Array>
          </mxGeometry>
        </mxCell>
        <mxCell id="iprwUJsvdUELKbYy_s9p-54" value="id" style="ellipse;whiteSpace=wrap;html=1;" vertex="1" parent="1">
          <mxGeometry x="520" y="750" width="60" height="40" as="geometry" />
        </mxCell>
        <mxCell id="iprwUJsvdUELKbYy_s9p-55" value="" style="endArrow=none;html=1;rounded=0;" edge="1" parent="1">
          <mxGeometry width="50" height="50" relative="1" as="geometry">
            <mxPoint x="532.5" y="780" as="sourcePoint" />
            <mxPoint x="567.5" y="780" as="targetPoint" />
          </mxGeometry>
        </mxCell>
        <mxCell id="iprwUJsvdUELKbYy_s9p-57" value="address" style="ellipse;whiteSpace=wrap;html=1;align=center;" vertex="1" parent="1">
          <mxGeometry x="620" y="750" width="100" height="40" as="geometry" />
        </mxCell>
        <mxCell id="iprwUJsvdUELKbYy_s9p-63" style="edgeStyle=orthogonalEdgeStyle;rounded=0;orthogonalLoop=1;jettySize=auto;html=1;entryX=1;entryY=0.5;entryDx=0;entryDy=0;" edge="1" parent="1" source="iprwUJsvdUELKbYy_s9p-58" target="iprwUJsvdUELKbYy_s9p-57">
          <mxGeometry relative="1" as="geometry">
            <Array as="points">
              <mxPoint x="730" y="700" />
              <mxPoint x="730" y="770" />
            </Array>
          </mxGeometry>
        </mxCell>
        <mxCell id="iprwUJsvdUELKbYy_s9p-58" value="street" style="ellipse;whiteSpace=wrap;html=1;align=center;" vertex="1" parent="1">
          <mxGeometry x="740" y="680" width="100" height="40" as="geometry" />
        </mxCell>
        <mxCell id="iprwUJsvdUELKbYy_s9p-64" style="edgeStyle=orthogonalEdgeStyle;rounded=0;orthogonalLoop=1;jettySize=auto;html=1;entryX=1;entryY=0.5;entryDx=0;entryDy=0;" edge="1" parent="1" source="iprwUJsvdUELKbYy_s9p-59" target="iprwUJsvdUELKbYy_s9p-57">
          <mxGeometry relative="1" as="geometry">
            <mxPoint x="730" y="780" as="targetPoint" />
            <Array as="points">
              <mxPoint x="730" y="870" />
              <mxPoint x="730" y="770" />
            </Array>
          </mxGeometry>
        </mxCell>
        <mxCell id="iprwUJsvdUELKbYy_s9p-59" value="locality" style="ellipse;whiteSpace=wrap;html=1;align=center;" vertex="1" parent="1">
          <mxGeometry x="745" y="850" width="100" height="40" as="geometry" />
        </mxCell>
        <mxCell id="iprwUJsvdUELKbYy_s9p-60" style="edgeStyle=orthogonalEdgeStyle;rounded=0;orthogonalLoop=1;jettySize=auto;html=1;entryX=0.461;entryY=1.009;entryDx=0;entryDy=0;entryPerimeter=0;" edge="1" parent="1" source="iprwUJsvdUELKbYy_s9p-53" target="iprwUJsvdUELKbYy_s9p-3">
          <mxGeometry relative="1" as="geometry">
            <Array as="points">
              <mxPoint x="450" y="720" />
              <mxPoint x="545" y="720" />
            </Array>
          </mxGeometry>
        </mxCell>
        <mxCell id="iprwUJsvdUELKbYy_s9p-62" style="edgeStyle=orthogonalEdgeStyle;rounded=0;orthogonalLoop=1;jettySize=auto;html=1;entryX=0.465;entryY=0.996;entryDx=0;entryDy=0;entryPerimeter=0;" edge="1" parent="1" source="iprwUJsvdUELKbYy_s9p-57" target="iprwUJsvdUELKbYy_s9p-3">
          <mxGeometry relative="1" as="geometry">
            <Array as="points">
              <mxPoint x="670" y="720" />
              <mxPoint x="546" y="720" />
            </Array>
          </mxGeometry>
        </mxCell>
      </root>
    </mxGraphModel>
  </diagram>
</mxfile>
